<svg class="icon" style="width: 1em; height: 1em; vertical-align: middle; fill: white; overflow: hidden; --darkreader-inline-fill: currentcolor;" viewBox="0 0 1024 1024" version="1.1"
    xmlns="http://www.w3.org/2000/svg" p-id="9182" data-darkreader-inline-fill="">
    <path d="M426.2 965.333c-17.673 0-32-14.327-32-32 0-17.496 14.042-31.713 31.471-31.995l0.53-0.005H479.5V619.581c-48.636-13.765-84.427-58.125-85.284-110.974l-0.016-1.94c0-64.798 52.515-117.334 117.3-117.334s117.3 52.536 117.3 117.334c0 53.701-36.069 98.98-85.3 112.914v281.752h53.3c17.673 0 32 14.327 32 32 0 17.497-14.041 31.713-31.47 31.996l-0.53 0.004H426.2z m409.513-782.988c179.05 179.12 179.05 469.523 0 648.643-12.495 12.499-32.756 12.503-45.255 0.009-12.374-12.37-12.502-32.352-0.38-44.878l0.37-0.377c154.069-154.128 154.069-404.022 0-558.151-154.06-154.121-403.835-154.121-557.897 0-152.527 152.587-154.053 399.034-4.576 553.498l4.576 4.653c12.494 12.5 12.49 32.76-0.01 45.255-12.498 12.494-32.76 12.49-45.254-0.01-179.05-179.119-179.05-469.522 0-648.642 179.058-179.127 469.369-179.127 648.426 0zM715.08 303.024c112.427 112.47 112.427 294.815 0 407.285-12.494 12.5-32.755 12.504-45.255 0.01-12.374-12.37-12.501-32.352-0.38-44.878l0.372-0.378c87.444-87.478 87.444-229.314 0-316.793-87.438-87.472-229.197-87.472-316.635 0-86.57 86.604-87.436 226.483-2.597 314.153l2.597 2.64c12.494 12.5 12.49 32.76-0.009 45.255-12.5 12.495-32.76 12.49-45.255-0.009-112.426-112.47-112.426-294.815 0-407.285 112.433-112.477 294.729-112.477 407.162 0z" p-id="9183"></path>
</svg>